<svg width="106" height="76" viewBox="0 0 106 76" fill="none" xmlns="http://www.w3.org/2000/svg">
<path d="M105.5 11.1249C105.5 10.1305 104.947 9.17622 103.963 8.47322C102.978 7.77022 101.642 7.37501 100.25 7.37501H83.3555L77.6187 3.66858C75.3109 2.17143 72.3601 1.27686 69.2483 1.13172C66.1365 0.986076 63.0483 1.59879 60.4865 2.86886L51.2497 7.41344V7.37493H32.8747V4.24993C32.8747 3.25552 32.3216 2.30122 31.3372 1.59821C30.3528 0.895214 29.0168 0.5 27.6248 0.5C26.4732 0.501116 25.3544 0.774 24.4412 1.27567C23.5287 1.77734 22.8732 2.47992 22.5764 3.2751C21.956 3.09486 21.2935 3.0011 20.6248 2.99999C19.4732 3.0011 18.3544 3.27399 17.4412 3.77566C16.5287 4.27733 15.8732 4.9799 15.5764 5.77509C14.956 5.59485 14.2935 5.50109 13.6248 5.49997C12.4732 5.50109 11.3544 5.77397 10.4412 6.27565C9.52869 6.77732 8.87323 7.47989 8.57635 8.27508C7.95603 8.09483 7.29353 8.00107 6.62479 7.99996C5.23417 8.00498 3.90299 8.40175 2.92019 9.10376C1.93737 9.80578 1.38191 10.7566 1.37487 11.7499V31.7499C1.37565 31.9966 1.47799 32.2382 1.66863 32.4436L4.87483 35.875V52.4393C3.65451 52.5866 2.54583 53.0375 1.74523 53.7122C0.944447 54.3863 0.503828 55.2412 0.499908 56.1257C0.501471 56.9483 0.883508 57.7475 1.58585 58.3997C2.28819 59.0515 3.27179 59.5197 4.38505 59.7318C4.13271 60.1749 4.00223 60.6481 3.99989 61.1257C3.99754 61.8925 4.32957 62.6413 4.94989 63.2669C5.09129 63.7334 5.60223 64.0972 6.25535 64.1971C6.74989 64.4432 7.30145 64.6246 7.88503 64.7317C7.63269 65.1748 7.50221 65.648 7.49987 66.1257C7.50143 66.9482 7.88347 67.7474 8.58581 68.3997C9.28815 69.0515 10.2717 69.5197 11.385 69.7317C11.1327 70.1748 11.0022 70.648 10.9999 71.1257C11.0069 72.119 11.5624 73.0698 12.5452 73.7718C13.528 74.4739 14.8592 74.8706 16.2498 74.8756H44.2498C44.5951 74.8751 44.9334 74.802 45.2209 74.6658L50.0249 72.3757H80.7309C82.1637 73.0598 83.9793 73.191 85.5747 72.7256C85.7989 73.3545 86.2583 73.9276 86.9036 74.3846C87.8786 75.1033 89.2232 75.5068 90.6254 75.5006C92.0176 75.5006 93.3536 75.1056 94.3378 74.4024C95.322 73.6993 95.8753 72.745 95.8753 71.7507V59.6831L101.064 55.5854C103.16 53.937 104.413 51.8293 104.616 49.6066C104.82 47.3838 103.962 45.178 102.184 43.3481L95.8215 36.7504H95.8754V24.3581C96.2645 24.2024 96.6223 24.0093 96.9379 23.7839C97.9441 23.0875 98.509 22.127 98.5004 21.1255C98.4988 20.6478 98.3676 20.1751 98.1152 19.7332C98.9957 19.573 99.7981 19.2449 100.438 18.784C101.444 18.0875 102.009 17.1271 102 16.1255C101.999 15.6478 101.868 15.1752 101.615 14.7332C102.496 14.5731 103.298 14.2449 103.938 13.784C104.944 13.0876 105.509 12.1271 105.5 11.1256L105.5 11.1249ZM4.87599 11.7499C4.87521 11.4123 5.06974 11.0898 5.41349 10.8588C5.73225 10.6266 6.17053 10.4972 6.62599 10.4999C7.09005 10.4999 7.53537 10.6316 7.86349 10.866C8.19161 11.1004 8.37599 11.4185 8.37599 11.7499V21.7499H11.876V9.24994C11.8752 8.91232 12.0697 8.58978 12.4135 8.35875C12.7323 8.12661 13.1705 7.99715 13.626 7.99994C14.0901 7.99994 14.5354 8.13163 14.8635 8.36601C15.1916 8.60038 15.376 8.91847 15.376 9.24994V21.7499H18.876V6.74994C18.8752 6.41232 19.0697 6.08978 19.4135 5.85875C19.7323 5.62661 20.1705 5.49715 20.626 5.49994C21.0901 5.49994 21.5354 5.63163 21.8635 5.86601C22.1916 6.10038 22.376 6.41846 22.376 6.74994V21.7499H25.876V4.24993C25.8752 3.91232 26.0697 3.58978 26.4135 3.35875C26.7323 3.12661 27.1705 2.99715 27.626 2.99993C28.0901 2.99993 28.5354 3.13163 28.8635 3.36601C29.1916 3.60038 29.376 3.91846 29.376 4.24993V29.2499H32.876V20.0451L35.4658 22.0914C37.0322 23.323 37.9682 24.8972 38.1204 26.5579C38.2727 28.2181 37.6321 29.8665 36.304 31.2337L24.4352 43.5411L27.3156 44.9585L29.3758 42.8235V48.1248C29.043 48.3034 28.6953 48.4624 28.382 48.665L22.6452 52.3748H8.37563V35.5005C8.37485 35.2539 8.27251 35.0122 8.08187 34.8069L4.87567 31.3755L4.87599 11.7499ZM41.592 27.3757H55.9756L60.785 29.6658C61.0709 29.8014 61.4069 29.8745 61.7506 29.8756H67.8756V40.1256L64.6694 43.5609C64.4796 43.7652 64.3772 44.0051 64.3757 44.2507V52.3757H54.7507V52.4142L45.5139 47.8756C41.8123 46.0469 37.0929 45.6267 32.8757 46.7506V39.2506H32.8218L39.185 32.6529H39.1842C40.6787 31.0954 41.5146 29.2633 41.592 27.3756L41.592 27.3757ZM49.5006 69.8757C49.1553 69.8762 48.817 69.9493 48.5295 70.0855L43.7255 72.3757H16.2495C15.7768 72.3762 15.3253 72.2373 15.0018 71.9917C14.6768 71.764 14.4956 71.451 14.4995 71.1257C14.4995 70.4354 15.2831 69.8757 16.2495 69.8757H30.2495V67.3756H12.7495C12.2768 67.3762 11.8253 67.2373 11.5018 66.9917C11.1768 66.764 10.9956 66.451 10.9995 66.1256C10.9995 65.4354 11.7831 64.8756 12.7495 64.8756H30.2495V62.3756H9.24949C8.77683 62.3762 8.32527 62.2373 8.00183 61.9917C7.67683 61.764 7.49559 61.451 7.49949 61.1256C7.49949 60.4354 8.28309 59.8756 9.24949 59.8756H30.2495V57.3756H5.74949C5.27683 57.3762 4.82527 57.2373 4.50183 56.9917C4.17683 56.764 3.99559 56.451 3.99949 56.1256C3.99949 55.4354 4.78309 54.8756 5.74949 54.8756H40.7495V52.3756H27.8627L30.7275 50.5258C32.4517 49.4069 34.6557 48.7384 36.9807 48.6296C39.3049 48.5208 41.6127 48.9784 43.5267 49.9271L60.7571 58.4048L62.7415 56.3474L59.7525 54.8758H64.3743V64.2508C64.3813 65.2441 64.9368 66.1949 65.9196 66.8969C66.9024 67.599 68.2336 67.9957 69.6242 68.0007C70.293 67.9996 70.9547 67.9059 71.5734 67.7256C71.9055 68.6045 72.6719 69.3685 73.7296 69.8758L49.5006 69.8757ZM90.3166 31.0414L87.4362 32.4588L99.305 44.7662H99.3042C100.632 46.1334 101.273 47.7818 101.121 49.4419C100.968 51.1027 100.032 52.6769 98.466 53.9085L95.8762 55.9548V46.7499H92.3762V71.75C92.3762 72.0814 92.1919 72.3995 91.8637 72.6339C91.5356 72.8683 91.0903 73 90.6262 73C90.1536 73.0005 89.702 72.8616 89.3786 72.616C89.0536 72.3883 88.8723 72.0753 88.8762 71.75V54.2499H85.3762V69.25C85.3762 69.5814 85.1919 69.8995 84.8637 70.1339C84.5356 70.3683 84.0903 70.5 83.6262 70.5C83.1536 70.5005 82.702 70.3616 82.3786 70.116C82.0536 69.8883 81.8723 69.5753 81.8762 69.25V54.2499H78.3762V66.75C78.3762 67.0814 78.1919 67.3995 77.8637 67.6339C77.5356 67.8683 77.0903 68 76.6262 68C76.1536 68.0005 75.702 67.8616 75.3786 67.616C75.0536 67.3883 74.8723 67.0753 74.8762 66.75V54.2499H71.3762V64.25C71.3762 64.5814 71.1919 64.8995 70.8637 65.1339C70.5356 65.3683 70.0903 65.5 69.6262 65.5C69.1536 65.5005 68.702 65.3616 68.3786 65.116C68.0536 64.8883 67.8723 64.5753 67.8762 64.25V44.6242L71.0824 41.1889C71.2723 40.9847 71.3746 40.7447 71.3762 40.4992V29.8742H89.7512C90.6754 29.872 91.5817 29.6934 92.3762 29.3569V33.1755L90.3166 31.0414ZM101.464 12.0157H101.463C101.145 12.2478 100.706 12.3773 100.251 12.3745H75.7509V14.8745H96.7509C97.215 14.8745 97.6603 15.0062 97.9884 15.2405C98.3166 15.4749 98.5009 15.793 98.5009 16.1245C98.5017 16.4621 98.3072 16.7846 97.9634 17.0157C97.6447 17.2478 97.2064 17.3773 96.7509 17.3745H75.7509V19.8745H93.2509C93.715 19.8745 94.1603 20.0062 94.4884 20.2405C94.8166 20.4749 95.0009 20.793 95.0009 21.1245C95.0017 21.4621 94.8072 21.7846 94.4634 22.0157C94.1447 22.2478 93.7064 22.3773 93.2509 22.3745H75.7509V24.8745H89.7509C90.215 24.8745 90.6603 25.0062 90.9884 25.2405C91.3166 25.4749 91.5009 25.793 91.5009 26.1245C91.5017 26.4621 91.3072 26.7846 90.9634 27.0157C90.6447 27.2478 90.2064 27.3773 89.7509 27.3745H62.2749L57.4655 25.0843C57.1796 24.9487 56.8436 24.8756 56.4999 24.8745H41.2991C40.778 23.2132 39.6632 21.6769 38.0639 20.4146L32.8749 16.3169V9.87435H46.2467L43.2577 11.3454L45.2421 13.4028L62.4725 4.92506V4.92562C64.3865 3.97641 66.6943 3.51881 69.0185 3.62764C71.3435 3.73645 73.5481 4.40498 75.2717 5.52435L78.1365 7.37421H65.2497V9.87421H100.25C100.714 9.87421 101.159 10.0059 101.487 10.2403C101.815 10.4747 102 10.7927 102 11.1242C102 11.4618 101.806 11.7844 101.462 12.0154L101.464 12.0157Z" fill="#003462"/>
</svg>
