<svg width="113" height="80" viewBox="0 0 113 80" fill="none" xmlns="http://www.w3.org/2000/svg">
<path d="M102.5 5C102.5 2.16686 99.4664 0 95.5 0H18.5C14.5336 0 11.5 2.16686 11.5 5V46.8329H102.734V5H102.5ZM95.5 41.8329H18.5V5H95.734V41.8329H95.5Z" fill="#003462"/>
<path d="M102.5 50H11.5001L1.00006 70H113L102.5 50ZM41.3661 65L44.1661 57.8331H69.6001L72.4001 65H41.3661Z" fill="#003462"/>
<path d="M0.999979 76.6672C0.999979 78.5003 3.09998 80.0003 5.66638 80.0003H108.332C110.899 80.0003 112.999 78.5003 112.999 76.6672V73.3341L0.998779 73.3335L0.999979 76.6672Z" fill="#003462"/>
<path d="M39.966 27.8329L36.9324 30.4997C39.966 32.3329 43.466 33.4997 47.1988 33.8329V35.9997H49.9988V33.8329C52.7988 33.666 55.1324 33.166 56.9988 31.9997C58.6324 30.8329 59.5652 29.4997 59.5652 27.6666C59.5652 25.8335 58.8652 24.4997 57.2316 23.6666C55.8316 22.6666 53.2652 21.9997 49.998 21.4997H49.7644L49.7659 15.8329C51.8659 15.9997 53.9659 16.666 55.8323 17.4997L58.6323 14.6666C55.8323 13.3335 53.0323 12.4997 49.7659 12.3335V10.9998H46.9659V12.4998C44.1659 12.6666 42.0659 13.1666 40.4323 14.3329C38.7987 15.4998 37.8659 16.8329 37.8659 18.666C37.8659 20.3329 38.5659 21.666 39.9659 22.666C41.3659 23.4992 43.6995 24.3329 46.9659 24.8329V30.666C44.6331 30.1666 42.2995 29.1666 39.9659 27.8329L39.966 27.8329ZM49.766 24.9997C51.3996 25.3329 52.566 25.6666 53.266 26.1666C53.966 26.4997 54.1996 27.1666 54.1996 27.8335C54.1996 28.5003 53.7332 29.1666 53.0332 29.5003C52.3332 30.0003 51.1668 30.1672 49.7668 30.3335L49.766 24.9997ZM43.9332 19.6666C43.4668 19.3335 42.9996 18.6666 42.9996 17.9997C42.9996 17.3329 43.466 16.8329 44.166 16.3329C44.866 15.8329 45.7996 15.666 47.1996 15.4997V20.6666C45.566 20.4997 44.6332 20.1666 43.9332 19.6666Z" fill="#003462"/>
<path d="M63.534 18.3328H77.0676V21.6659H63.534V18.3328Z" fill="#003462"/>
<path d="M63.534 25.1672H77.0676V28.5004H63.534V25.1672Z" fill="#003462"/>
</svg>
