<svg width="37" height="34" viewBox="0 0 37 34" fill="none" xmlns="http://www.w3.org/2000/svg">
<path d="M35.9061 14.7997L19.6022 0.560441C19.3019 0.308899 18.9083 0.168976 18.4996 0.168976C18.0908 0.168976 17.6972 0.308907 17.3969 0.560441L1.093 14.7997C0.779972 15.0733 0.600786 15.4489 0.595345 15.8434C0.589541 16.2378 0.758206 16.6178 1.06326 16.8986C1.36868 17.1792 1.78472 17.3372 2.21924 17.3375H4.68683V32.0875C4.68683 32.4787 4.85804 32.854 5.16272 33.1306C5.46741 33.4071 5.88092 33.5625 6.31183 33.5625H12.8118V23.2375C12.8118 22.4552 13.1542 21.7049 13.7636 21.1514C14.3734 20.5983 15.2 20.2875 16.0618 20.2875H20.9368C21.7987 20.2875 22.6254 20.5983 23.2351 21.1514C23.8444 21.7049 24.1868 22.4553 24.1868 23.2375V33.5625H30.6868C31.1178 33.5625 31.5313 33.4071 31.836 33.1306C32.1406 32.854 32.3119 32.4787 32.3119 32.0875V17.3375H34.7794C35.214 17.3372 35.63 17.1792 35.9354 16.8986C36.2405 16.6178 36.4091 16.2379 36.4033 15.8434C36.3979 15.449 36.2187 15.0733 35.9057 14.7997H35.9061Z" fill="#003462"/>
</svg>
