<svg width="413" height="67" viewBox="0 0 413 67" fill="none" xmlns="http://www.w3.org/2000/svg">
<rect x="54.2748" y="34.0104" width="18.4495" height="7.23576" rx="3.61788" fill="#00A0A3"/>
<path d="M3.5387 31.0855L12.7542 13.8788C13.5032 12.4804 15.5042 12.4688 16.2693 13.8585L34.5245 47.0185C35.3096 48.4447 37.3787 48.3854 38.0809 46.9166L53.7259 14.1921C54.4324 12.7142 56.5186 12.6659 57.2928 14.1095L81.895 59.9826C82.7479 61.5729 85.1046 61.3095 85.5853 59.5701L100.804 4.49608C101.045 3.62303 101.84 3.02099 102.746 3.02642C104.983 3.03982 109.189 3.05642 112.081 3.01571C116.121 2.95884 119.94 2.9017 125.485 5.83015C125.671 5.92819 125.842 6.06002 125.987 6.21243C130.156 10.6142 131.248 12.4844 130.955 17.0506C130.57 20.0514 128.392 22.9628 127.704 23.8184C127.568 23.9875 127.462 24.1766 127.342 24.3574C125.204 27.5781 110.351 29.2383 110.351 29.2383" stroke="#003462" stroke-width="6" stroke-linecap="round"/>
<path d="M160.773 30.3203C160.703 30.0332 160.627 29.6729 160.545 29.2393C160.469 28.7998 160.407 28.4658 160.36 28.2373L160.141 27.042L159.93 28.2373C159.883 28.4658 159.818 28.7998 159.736 29.2393C159.66 29.6729 159.587 30.0332 159.517 30.3203L157.97 37H154.331L151.237 24.2383H153.971L155.342 30.2324C155.535 31.1113 155.702 31.8145 155.843 32.3418L156.326 34.46L157.302 30.2324L158.682 24.2383H161.6L162.988 30.2324L163.964 34.46C164.157 33.5986 164.324 32.8926 164.465 32.3418L164.948 30.2324L166.319 24.2383H169.053L165.959 37H162.32L160.773 30.3203ZM170.74 24.2383H173.491V37H170.74V24.2383ZM184.715 30.3203C184.645 30.0332 184.568 29.6729 184.486 29.2393C184.41 28.7998 184.349 28.4658 184.302 28.2373L184.082 27.042L183.871 28.2373C183.824 28.4658 183.76 28.7998 183.678 29.2393C183.602 29.6729 183.528 30.0332 183.458 30.3203L181.911 37H178.272L175.179 24.2383H177.912L179.283 30.2324C179.477 31.1113 179.644 31.8145 179.784 32.3418L180.268 34.46L181.243 30.2324L182.623 24.2383H185.541L186.93 30.2324L187.905 34.46C188.099 33.5986 188.266 32.8926 188.406 32.3418L188.89 30.2324L190.261 24.2383H192.994L189.9 37H186.262L184.715 30.3203ZM196.229 33.7217L195.191 37H192.484L196.624 24.2383H200.263L204.508 37H201.845L200.764 33.7217H196.229ZM198.408 26.5938L196.844 31.6914H200.14L198.531 26.5938H198.408ZM210.449 24.2383C212.008 24.2383 213.2 24.584 214.026 25.2754C214.853 25.9609 215.266 26.96 215.266 28.2725C215.266 29.5439 214.847 30.5342 214.009 31.2432C213.171 31.9463 212.002 32.2979 210.502 32.2979H208.788V37H206.072V24.2383H210.449ZM210.335 30.2852C211.079 30.2852 211.633 30.1211 211.996 29.793C212.365 29.459 212.55 28.9521 212.55 28.2725C212.55 27.5869 212.368 27.083 212.005 26.7607C211.647 26.4326 211.091 26.2686 210.335 26.2686H208.788V30.2852H210.335ZM156.528 44.0801C157.583 44.0742 158.77 44.3057 160.088 44.7744L159.534 46.8838C158.31 46.4502 157.313 46.2334 156.546 46.2334C155.925 46.2334 155.436 46.3564 155.078 46.6025C154.721 46.8486 154.542 47.1826 154.542 47.6045C154.542 48.0615 154.706 48.4248 155.034 48.6943C155.368 48.9639 155.975 49.2129 156.854 49.4414C158.148 49.7754 159.068 50.2383 159.613 50.8301C160.158 51.416 160.431 52.2246 160.431 53.2559C160.431 54.5039 160.009 55.4619 159.165 56.1299C158.327 56.792 157.129 57.123 155.57 57.123C154.299 57.123 152.937 56.8359 151.483 56.2617L152.134 54.2139C152.937 54.501 153.593 54.7031 154.103 54.8203C154.612 54.9316 155.096 54.9873 155.553 54.9873C156.215 54.9873 156.725 54.8467 157.082 54.5654C157.445 54.2783 157.627 53.8828 157.627 53.3789C157.627 53.0566 157.551 52.7871 157.398 52.5703C157.246 52.3535 156.988 52.1602 156.625 51.9902C156.262 51.8145 155.737 51.6416 155.052 51.4717C153.909 51.1963 153.074 50.7686 152.547 50.1885C152.02 49.6084 151.756 48.8438 151.756 47.8945C151.756 46.6816 152.172 45.7441 153.004 45.082C153.842 44.4141 155.017 44.0801 156.528 44.0801ZM167.77 44.0537C169.75 44.0537 171.265 44.6162 172.313 45.7412C173.362 46.8604 173.887 48.4658 173.887 50.5576C173.887 52.6963 173.365 54.3311 172.322 55.4619C171.279 56.5928 169.762 57.1582 167.77 57.1582C165.766 57.1582 164.245 56.5957 163.208 55.4707C162.171 54.3398 161.652 52.7021 161.652 50.5576C161.652 48.4717 162.177 46.8662 163.226 45.7412C164.274 44.6162 165.789 44.0537 167.77 44.0537ZM167.77 46.2158C166.68 46.2158 165.859 46.582 165.309 47.3145C164.764 48.0469 164.491 49.1279 164.491 50.5576C164.491 52.0107 164.767 53.1152 165.317 53.8711C165.874 54.627 166.691 55.0049 167.77 55.0049C168.848 55.0049 169.662 54.627 170.213 53.8711C170.77 53.1152 171.048 52.0107 171.048 50.5576C171.048 49.1396 170.77 48.0615 170.213 47.3232C169.662 46.585 168.848 46.2158 167.77 46.2158ZM183.985 57H175.996V44.2383H178.624V54.9082H183.985V57ZM195.965 52.6406C195.965 54.1172 195.508 55.2422 194.594 56.0156C193.68 56.7891 192.358 57.1758 190.63 57.1758C188.878 57.1758 187.551 56.792 186.648 56.0244C185.752 55.2568 185.304 54.1289 185.304 52.6406V44.2383H188.063V52.6758C188.063 54.2227 188.919 54.999 190.63 55.0049C192.347 55.0049 193.205 54.2285 193.205 52.6758V44.2383H195.965V52.6406ZM203.69 57.8086C204.065 57.9316 204.382 58.1338 204.64 58.415C204.897 58.6963 205.026 58.9922 205.026 59.3027C205.026 59.8066 204.865 60.1963 204.543 60.4717C204.227 60.7471 203.831 60.8848 203.356 60.8848C202.771 60.8848 202.199 60.7236 201.643 60.4014L202.038 59.5576C202.144 59.6162 202.278 59.666 202.442 59.707C202.606 59.748 202.765 59.7686 202.917 59.7686C203.11 59.7686 203.263 59.7246 203.374 59.6367C203.491 59.5488 203.55 59.4141 203.55 59.2324C203.55 59.0508 203.468 58.8984 203.304 58.7754C203.146 58.6582 202.885 58.5586 202.521 58.4766L202.346 58.0107L203.031 57.0879C201.35 56.918 200.058 56.2793 199.155 55.1719C198.259 54.0645 197.811 52.5498 197.811 50.6279C197.811 49.2744 198.057 48.1055 198.549 47.1211C199.041 46.1367 199.75 45.3838 200.676 44.8623C201.607 44.3408 202.721 44.0801 204.016 44.0801C204.689 44.0801 205.36 44.168 206.028 44.3438C206.702 44.5137 207.306 44.7539 207.839 45.0645L207.021 46.9717C206.518 46.7314 206.052 46.5586 205.624 46.4531C205.202 46.3418 204.774 46.2861 204.341 46.2861C203.128 46.2861 202.205 46.6523 201.572 47.3848C200.945 48.1172 200.632 49.1807 200.632 50.5752C200.632 51.9932 200.945 53.0684 201.572 53.8008C202.205 54.5273 203.128 54.8906 204.341 54.8906C205.278 54.8906 206.257 54.6768 207.276 54.249L207.944 56.2617C206.626 56.8477 205.305 57.1406 203.98 57.1406H203.91L203.69 57.8086ZM213.631 40.3184C213.994 40.3184 214.29 40.377 214.519 40.4941C214.747 40.6113 214.981 40.7783 215.222 40.9951C215.427 41.1768 215.6 41.3115 215.74 41.3994C215.887 41.4814 216.06 41.5225 216.259 41.5225C216.487 41.5225 216.666 41.4316 216.795 41.25C216.93 41.0684 216.997 40.8223 216.997 40.5117H218.509C218.509 41.2793 218.304 41.8975 217.894 42.3662C217.489 42.835 216.953 43.0693 216.285 43.0693C215.951 43.0693 215.664 43.0078 215.424 42.8848C215.189 42.7559 214.929 42.5771 214.642 42.3486C214.448 42.1787 214.281 42.0527 214.141 41.9707C214.006 41.8887 213.862 41.8477 213.71 41.8477C213.458 41.8477 213.256 41.9385 213.104 42.1201C212.951 42.2959 212.875 42.5449 212.875 42.8672H211.346C211.346 42.0762 211.551 41.4551 211.961 41.0039C212.371 40.5469 212.928 40.3184 213.631 40.3184ZM215.002 44.0537C216.982 44.0537 218.497 44.6162 219.546 45.7412C220.595 46.8604 221.119 48.4658 221.119 50.5576C221.119 52.6963 220.598 54.3311 219.555 55.4619C218.512 56.5928 216.994 57.1582 215.002 57.1582C212.998 57.1582 211.478 56.5957 210.44 55.4707C209.403 54.3398 208.885 52.7021 208.885 50.5576C208.885 48.4717 209.409 46.8662 210.458 45.7412C211.507 44.6162 213.021 44.0537 215.002 44.0537ZM215.002 46.2158C213.912 46.2158 213.092 46.582 212.541 47.3145C211.996 48.0469 211.724 49.1279 211.724 50.5576C211.724 52.0107 211.999 53.1152 212.55 53.8711C213.106 54.627 213.924 55.0049 215.002 55.0049C216.08 55.0049 216.895 54.627 217.445 53.8711C218.002 53.1152 218.28 52.0107 218.28 50.5576C218.28 49.1396 218.002 48.0615 217.445 47.3232C216.895 46.585 216.08 46.2158 215.002 46.2158ZM225.979 49.4238H231.007V51.4189H225.979V54.9697H231.728V57H223.229V44.2383H231.543V46.2686H225.979V49.4238ZM237.862 44.0801C238.917 44.0742 240.104 44.3057 241.422 44.7744L240.868 46.8838C239.644 46.4502 238.647 46.2334 237.88 46.2334C237.259 46.2334 236.77 46.3564 236.412 46.6025C236.055 46.8486 235.876 47.1826 235.876 47.6045C235.876 48.0615 236.04 48.4248 236.368 48.6943C236.702 48.9639 237.309 49.2129 238.188 49.4414C239.482 49.7754 240.402 50.2383 240.947 50.8301C241.492 51.416 241.765 52.2246 241.765 53.2559C241.765 54.5039 241.343 55.4619 240.499 56.1299C239.661 56.792 238.463 57.123 236.904 57.123C235.633 57.123 234.271 56.8359 232.817 56.2617L233.468 54.2139C234.271 54.501 234.927 54.7031 235.437 54.8203C235.946 54.9316 236.43 54.9873 236.887 54.9873C237.549 54.9873 238.059 54.8467 238.416 54.5654C238.779 54.2783 238.961 53.8828 238.961 53.3789C238.961 53.0566 238.885 52.7871 238.732 52.5703C238.58 52.3535 238.322 52.1602 237.959 51.9902C237.596 51.8145 237.071 51.6416 236.386 51.4717C235.243 51.1963 234.408 50.7686 233.881 50.1885C233.354 49.6084 233.09 48.8438 233.09 47.8945C233.09 46.6816 233.506 45.7441 234.338 45.082C235.176 44.4141 236.351 44.0801 237.862 44.0801ZM250.571 49.5117H255.291V51.5859H250.571V57H247.82V44.2383H256.029V46.3037H250.571V49.5117ZM257.77 44.2383H260.521V57H257.77V44.2383ZM267.912 51.3486C267.49 50.751 266.831 49.6875 265.935 48.1582V57H263.43V44.2383H265.609L269.494 49.7842C269.986 50.4814 270.672 51.5596 271.551 53.0186V44.2383H274.064V57H271.867L267.912 51.3486ZM279.373 53.7217L278.336 57H275.629L279.769 44.2383H283.407L287.652 57H284.989L283.908 53.7217H279.373ZM281.553 46.5938L279.988 51.6914H283.284L281.676 46.5938H281.553ZM293.699 51.3486C293.277 50.751 292.618 49.6875 291.722 48.1582V57H289.217V44.2383H291.396L295.281 49.7842C295.773 50.4814 296.459 51.5596 297.338 53.0186V44.2383H299.852V57H297.654L293.699 51.3486ZM308.166 44.0801C308.84 44.0801 309.511 44.168 310.179 44.3438C310.853 44.5137 311.456 44.7539 311.989 45.0645L311.172 46.9717C310.668 46.7314 310.202 46.5586 309.774 46.4531C309.353 46.3418 308.925 46.2861 308.491 46.2861C307.278 46.2861 306.355 46.6523 305.723 47.3848C305.096 48.1172 304.782 49.1807 304.782 50.5752C304.782 51.9932 305.096 53.0684 305.723 53.8008C306.355 54.5273 307.278 54.8906 308.491 54.8906C309.429 54.8906 310.407 54.6768 311.427 54.249L312.095 56.2617C310.776 56.8477 309.455 57.1406 308.131 57.1406C306.139 57.1406 304.612 56.5811 303.552 55.4619C302.491 54.3369 301.961 52.7256 301.961 50.6279C301.961 49.2744 302.207 48.1055 302.699 47.1211C303.191 46.1367 303.9 45.3838 304.826 44.8623C305.758 44.3408 306.871 44.0801 308.166 44.0801ZM316.577 49.4238H321.604V51.4189H316.577V54.9697H322.325V57H313.826V44.2383H322.141V46.2686H316.577V49.4238ZM324.391 44.2383H327.142V57H324.391V44.2383ZM332.767 57H330.051V44.2383H334.428C336.021 44.2383 337.243 44.5781 338.093 45.2578C338.948 45.9316 339.376 46.9189 339.376 48.2197C339.376 49.0225 339.171 49.7168 338.761 50.3027C338.351 50.8887 337.768 51.3398 337.012 51.6562L339.807 57H336.871L334.533 52.1396H332.767V57ZM334.313 50.1621C335.104 50.1621 335.688 50.0039 336.062 49.6875C336.443 49.3652 336.634 48.876 336.634 48.2197C336.634 47.5459 336.443 47.0537 336.062 46.7432C335.688 46.4268 335.104 46.2686 334.313 46.2686H332.767V50.1621H334.313ZM344.061 53.7217L343.023 57H340.316L344.456 44.2383H348.095L352.34 57H349.677L348.596 53.7217H344.061ZM346.24 46.5938L344.676 51.6914H347.972L346.363 46.5938H346.24ZM357.851 44.0801C358.905 44.0742 360.092 44.3057 361.41 44.7744L360.856 46.8838C359.632 46.4502 358.636 46.2334 357.868 46.2334C357.247 46.2334 356.758 46.3564 356.4 46.6025C356.043 46.8486 355.864 47.1826 355.864 47.6045C355.864 48.0615 356.028 48.4248 356.356 48.6943C356.69 48.9639 357.297 49.2129 358.176 49.4414C359.471 49.7754 360.391 50.2383 360.936 50.8301C361.48 51.416 361.753 52.2246 361.753 53.2559C361.753 54.5039 361.331 55.4619 360.487 56.1299C359.649 56.792 358.451 57.123 356.893 57.123C355.621 57.123 354.259 56.8359 352.806 56.2617L353.456 54.2139C354.259 54.501 354.915 54.7031 355.425 54.8203C355.935 54.9316 356.418 54.9873 356.875 54.9873C357.537 54.9873 358.047 54.8467 358.404 54.5654C358.768 54.2783 358.949 53.8828 358.949 53.3789C358.949 53.0566 358.873 52.7871 358.721 52.5703C358.568 52.3535 358.311 52.1602 357.947 51.9902C357.584 51.8145 357.06 51.6416 356.374 51.4717C355.231 51.1963 354.396 50.7686 353.869 50.1885C353.342 49.6084 353.078 48.8438 353.078 47.8945C353.078 46.6816 353.494 45.7441 354.326 45.082C355.164 44.4141 356.339 44.0801 357.851 44.0801Z" fill="#00A0A3"/>
</svg>
