<svg width="104" height="76" viewBox="0 0 104 76" fill="none" xmlns="http://www.w3.org/2000/svg">
<path d="M44.33 23.6001H79.356C82.6818 23.6001 85.3802 21.6727 85.3802 19.2971C85.3802 16.9216 82.6818 14.9941 79.356 14.9941H44.33C41.0206 14.9941 38.323 16.9093 38.323 19.2849V19.3089C38.3394 21.6733 41.0206 23.6001 44.33 23.6001V23.6001Z" fill="#003462"/>
<path d="M95.172 6.73948H97.497C97.9548 6.73948 98.3283 6.47274 98.3283 6.14574C98.3283 5.81873 97.9548 5.552 97.497 5.552H95.172C94.7142 5.552 94.3408 5.81874 94.3408 6.14574C94.3572 6.47276 94.7306 6.73948 95.172 6.73948Z" fill="#003462"/>
<path d="M88.706 6.73949H91.031C91.4888 6.73949 91.8623 6.47275 91.8623 6.14575C91.8623 5.81818 91.4888 5.56372 91.031 5.56372H88.706C88.2482 5.56372 87.8748 5.83046 87.8748 6.15746C87.8748 6.48503 88.2482 6.73949 88.706 6.73949Z" fill="#003462"/>
<path d="M93.1 9.87896C93.5578 9.87896 93.9313 9.61221 93.9313 9.28522V7.6245C93.9313 7.29749 93.5578 7.03076 93.1 7.03076C92.6422 7.03076 92.2688 7.2975 92.2688 7.6245V9.28522C92.2852 9.61223 92.6414 9.87896 93.1 9.87896Z" fill="#003462"/>
<path d="M93.1 5.26056C93.5578 5.26056 93.9313 4.99381 93.9313 4.66681V3.0061C93.9313 2.67908 93.5578 2.41235 93.1 2.41235C92.6422 2.41235 92.2688 2.6791 92.2688 3.0061L92.268 4.66681C92.2852 4.99383 92.6414 5.26056 93.1 5.26056H93.1Z" fill="#003462"/>
<path d="M6.844 8.40014C8.60884 8.40014 10.0346 7.39399 10.0346 6.15799C10.0346 4.92139 8.60882 3.90356 6.844 3.90356C5.09634 3.90356 3.6706 4.90971 3.6706 6.15799C3.6706 7.39404 5.09638 8.40014 6.844 8.40014ZM6.844 5.07871C7.69244 5.07871 8.38854 5.56364 8.38854 6.15739C8.38854 6.75115 7.69244 7.22379 6.844 7.22379C5.99556 7.22379 5.31666 6.73886 5.31666 6.15739C5.31666 5.55136 5.99556 5.07871 6.844 5.07871V5.07871Z" fill="#003462"/>
<path d="M32.418 9.87889H34.4376C34.8954 9.87889 35.2689 9.61214 35.2689 9.28515C35.2689 8.95813 34.8954 8.69141 34.4376 8.69141H32.418C31.9602 8.69141 31.5868 8.95815 31.5868 9.28515C31.586 9.61216 31.9594 9.87889 32.418 9.87889V9.87889Z" fill="#003462"/>
<path d="M26.8 9.87889H28.8196C29.2774 9.87889 29.6508 9.61214 29.6508 9.28515C29.6508 8.95813 29.2774 8.69141 28.8196 8.69141H26.8C26.3422 8.69141 25.9688 8.95815 25.9688 9.28515C25.9688 9.61216 26.3586 9.87889 26.8 9.87889Z" fill="#003462"/>
<path d="M30.618 12.6059C31.0758 12.6059 31.4492 12.3391 31.4492 12.0121V10.5696C31.4492 10.2426 31.0758 9.97583 30.618 9.97583C30.1602 9.97583 29.7868 10.2426 29.7868 10.5696V12.0121C29.804 12.3392 30.1602 12.6059 30.618 12.6059Z" fill="#003462"/>
<path d="M30.618 8.59385C31.0758 8.59385 31.4492 8.32711 31.4492 8.00011L31.45 6.56982C31.45 6.2428 31.0766 5.97607 30.6188 5.97607C30.161 5.97607 29.7876 6.24282 29.7876 6.56982V8.01239C29.804 8.33941 30.1602 8.59386 30.618 8.59386L30.618 8.59385Z" fill="#003462"/>
<path d="M99.498 70.9087C97.9707 70.9087 96.7316 71.7815 96.7316 72.8478C96.7316 73.9142 97.9707 74.787 99.498 74.787C101.008 74.787 102.247 73.9142 102.247 72.8478C102.247 71.7815 101.008 70.9087 99.498 70.9087V70.9087ZM99.498 73.6118C98.8699 73.6118 98.3777 73.2725 98.3777 72.8484C98.3777 72.4243 98.8699 72.085 99.498 72.085C100.109 72.085 100.601 72.4366 100.601 72.8484C100.601 73.2603 100.109 73.6118 99.498 73.6118Z" fill="#003462"/>
<path d="M26.63 26.0614C28.1402 26.0614 29.362 25.2009 29.362 24.134C29.362 23.0676 28.1401 22.2065 26.63 22.2065C25.137 22.2065 23.9152 23.0793 23.9152 24.134C23.9144 25.2004 25.1199 26.0614 26.63 26.0614ZM26.63 23.3823C27.2409 23.3823 27.7159 23.7093 27.7159 24.1339C27.7159 24.5463 27.2238 24.8856 26.63 24.8856C26.0362 24.8856 25.5612 24.5463 25.5612 24.1339C25.5605 23.7215 26.0362 23.3823 26.63 23.3823Z" fill="#003462"/>
<path d="M12.324 30.8972H14.3436C14.8014 30.8972 15.1748 30.6305 15.1748 30.3035C15.1748 29.9764 14.8014 29.7097 14.3436 29.7097H12.324C11.8662 29.7097 11.4928 29.9765 11.4928 30.3035C11.492 30.631 11.8826 30.8972 12.324 30.8972Z" fill="#003462"/>
<path d="M6.724 29.7214C6.26618 29.7214 5.89276 29.9882 5.89276 30.3152C5.89276 30.6422 6.2662 30.9089 6.724 30.9089H8.7436C9.20142 30.9089 9.57484 30.6422 9.57484 30.3152C9.57484 29.9882 9.2014 29.7214 8.7436 29.7214H6.724Z" fill="#003462"/>
<path d="M10.542 31.0059C10.0842 31.0059 9.71076 31.2726 9.71076 31.5996V33.0422C9.71076 33.3692 10.0842 33.6359 10.542 33.6359C10.9998 33.6359 11.3732 33.3692 11.3732 33.0422V31.5996C11.3568 31.2726 10.9834 31.0059 10.542 31.0059Z" fill="#003462"/>
<path d="M9.712 27.5757V29.0183C9.712 29.3453 10.0854 29.612 10.5432 29.612C11.0011 29.612 11.3745 29.3453 11.3745 29.0183V27.5757C11.3745 27.2487 11.001 26.9819 10.5432 26.9819C10.0854 26.9937 9.712 27.2604 9.712 27.5757Z" fill="#003462"/>
<path d="M21.896 45.26C21.421 45.284 21.0476 45.3571 20.7929 45.4782C20.521 45.587 20.3858 45.745 20.3858 45.9269C20.3858 46.1211 20.4874 46.2539 20.7085 46.3633C20.9124 46.4721 21.3194 46.5692 21.9132 46.6663L21.9124 45.26L21.896 45.26Z" fill="#003462"/>
<path d="M24.542 48.5816C24.542 48.3874 24.4232 48.2423 24.1858 48.1329C23.9483 48.0241 23.524 47.9147 22.8959 47.8176V49.2842C23.3881 49.2602 23.7951 49.1754 24.1006 49.0537C24.3896 48.9332 24.542 48.7753 24.542 48.5816V48.5816Z" fill="#003462"/>
<path d="M22.236 53.0185C34.2336 53.0185 43.974 50.4851 43.974 47.3701C43.974 44.2551 34.2334 41.7217 22.236 41.7217C10.2212 41.7217 0.48 44.2551 0.48 47.3701C0.48 50.4851 10.2206 53.0185 22.236 53.0185ZM19.2836 47.1034C18.7234 46.8612 18.4688 46.5096 18.4688 46.037C18.4688 45.5521 18.7742 45.1765 19.4188 44.8735C20.0469 44.5705 20.8781 44.4131 21.8962 44.3886V43.9762H22.8977V44.3886C24.0516 44.4248 25.1547 44.6308 26.1727 44.9946L25.1548 45.7463C24.4759 45.4918 23.7126 45.3339 22.8978 45.2736V46.8132H22.9485C24.1532 46.9588 25.0525 47.1525 25.6125 47.4069C26.1899 47.6614 26.4782 48.0252 26.4782 48.4979C26.4782 48.9705 26.1391 49.3584 25.4938 49.6614C24.8321 49.9644 23.9664 50.1218 22.9142 50.1463V50.7283H21.9126V50.1346C20.4704 50.0621 19.1806 49.7708 18.0266 49.2496L19.1805 48.5342C20.0797 48.9343 20.979 49.1765 21.9125 49.2496V47.662C20.7086 47.5275 19.8265 47.3456 19.2835 47.1034L19.2836 47.1034Z" fill="#003462"/>
<path d="M45.534 9.33322L48.0458 12.6424H75.6218L78.1336 9.33322C81.9008 4.59379 79.2023 1.40579 79.2023 1.40579C76.4875 -2.53335 61.9102 6.06036 61.9102 6.06036L61.8422 6.09719C61.8422 6.09719 47.1976 -2.53338 44.482 1.40634C44.482 1.40634 42.361 2.41248 44.5328 7.86676C44.7367 8.36398 45.1273 8.82435 45.5343 9.33334L45.534 9.33322Z" fill="#003462"/>
<path d="M22.236 72.34C14.1586 72.34 5.6906 71.2128 0.955999 68.8127C0.650539 69.1883 0.480999 69.5884 0.480999 69.9885C0.480999 73.0918 10.2216 75.6247 22.219 75.6247C34.2338 75.6247 43.975 73.0912 43.975 69.9885C43.975 69.5884 43.8055 69.1883 43.5 68.8127C38.7984 71.2006 30.3132 72.34 22.236 72.34V72.34Z" fill="#003462"/>
<path d="M22.236 66.6787C14.1586 66.6787 5.6906 65.5514 0.955999 63.1514C0.650539 63.5269 0.480999 63.927 0.480999 64.3272C0.480999 67.4422 10.2216 69.9756 22.219 69.9756C34.2338 69.9756 43.975 67.4422 43.975 64.3272C43.975 63.927 43.8055 63.5269 43.5 63.1514C38.7984 65.5515 30.3132 66.6787 22.236 66.6787Z" fill="#003462"/>
<path d="M22.236 61.03C14.1586 61.03 5.6906 59.9027 0.955999 57.5027C0.650539 57.8782 0.480999 58.2784 0.480999 58.6785C0.480999 61.7935 10.2216 64.3269 22.219 64.3269C34.2338 64.3269 43.975 61.7935 43.975 58.6785C43.975 58.2784 43.8055 57.8782 43.5 57.5027C38.7984 59.9028 30.3132 61.03 22.236 61.03Z" fill="#003462"/>
<path d="M22.236 55.37C14.1586 55.37 5.6906 54.2427 0.955999 51.855C0.650539 52.2305 0.480999 52.6307 0.480999 53.0308C0.480999 56.1458 10.2216 58.6792 22.219 58.6792C34.2338 58.6792 43.975 56.1458 43.975 53.0308C43.975 52.6184 43.8055 52.2305 43.5 51.855C38.7812 54.2311 30.3132 55.37 22.236 55.37Z" fill="#003462"/>
<path d="M66.272 48.9701V53.5761C67.4087 53.4913 68.3252 53.2491 68.9868 52.8607C69.6485 52.4729 69.9884 51.9756 69.9884 51.3818C69.9884 50.788 69.7337 50.3154 69.2079 49.9638C68.6985 49.6 67.7142 49.273 66.2719 48.97L66.272 48.9701Z" fill="#003462"/>
<path d="M60.552 43.0659C60.552 43.6356 60.7895 44.0843 61.2645 44.4236C61.7395 44.7506 62.6559 45.0782 63.9793 45.3812V40.957C62.9105 41.0296 62.0621 41.2478 61.4511 41.6356C60.8573 42.0234 60.5519 42.4966 60.5519 43.0659H60.552Z" fill="#003462"/>
<path d="M96.088 39.6486C93.984 36.9455 91.506 34.4121 88.8248 31.9879L85.9568 29.3942C84.5654 28.1336 83.0716 26.9338 81.5278 25.7698C80.8317 25.8909 80.102 25.964 79.356 25.964H44.33C43.5667 25.964 42.837 25.8914 42.1238 25.7698C39.0012 28.0968 33.9956 32.1699 29.5324 37.3093C40.3762 38.1821 50.5584 41.1275 50.5584 47.3702C50.5584 48.3641 50.2701 49.3216 49.71 50.2185C50.2701 51.1152 50.5584 52.0728 50.5584 53.0305C50.5584 54.0243 50.2701 54.9696 49.71 55.8669C50.2701 56.7637 50.5584 57.7212 50.5584 58.6789C50.5584 59.6728 50.2701 60.6181 49.71 61.5153C50.2701 62.4121 50.5584 63.3696 50.5584 64.3273C50.5584 65.3212 50.2701 66.2665 49.71 67.1638C50.2701 68.0605 50.5584 69.0181 50.5584 69.9758C50.5584 70.497 50.4732 70.9942 50.3381 71.4669C51.085 71.4792 51.8482 71.4792 52.6459 71.4792H71.0069C103.503 71.4792 102.927 62.6549 102.927 62.6549C105.014 54.3642 101.246 46.2792 96.0879 39.6492L96.088 39.6486ZM72.144 54.7629C70.6674 55.6965 68.7158 56.2055 66.2722 56.3025V58.1451H63.9816V56.2785C60.7066 56.0363 57.7706 55.115 55.1746 53.4905L57.7878 51.2601C59.7902 52.5084 61.8604 53.2478 63.9816 53.4905V48.5329C61.2832 48.0725 59.3152 47.4665 58.059 46.7148C56.8035 45.9631 56.1754 44.8482 56.1754 43.3816C56.1754 41.9028 56.9051 40.7031 58.3472 39.7695C59.7894 38.8359 61.673 38.3146 63.9808 38.2299V36.957H66.2714V38.2662C68.9018 38.3996 71.3792 39.0419 73.7214 40.1813L71.3964 42.5329C69.8183 41.7327 68.1214 41.236 66.2714 41.054V45.866H66.373C69.1222 46.3264 71.1246 46.9447 72.4144 47.7326C73.7042 48.5206 74.3487 49.6478 74.3487 51.1506C74.3675 52.6178 73.6378 53.8298 72.1441 54.7628L72.144 54.7629Z" fill="#003462"/>
</svg>
