<svg width="100" height="100" viewBox="0 0 100 100" fill="none" xmlns="http://www.w3.org/2000/svg">
<path d="M63.5544 53.5783C61.8131 53.5783 60.3962 51.9397 60.3962 49.9271C60.3962 47.914 61.8131 46.2758 63.5544 46.2758C65.2956 46.2758 66.7121 47.914 66.7121 49.9271C66.7121 51.9598 65.2782 53.5779 63.5544 53.5779V53.5783ZM63.5544 44.1046C60.7719 44.1046 58.5185 46.7102 58.5185 49.9271C58.5185 53.144 60.7719 55.7492 63.5544 55.7492C66.3368 55.7492 68.5902 53.144 68.5902 49.9271C68.5902 46.7298 66.3368 44.105 63.5544 44.105V44.1046ZM57.3918 53.8742H57.8015V56.0647H57.3918C55.2239 56.0647 53.4483 54.0122 53.4483 51.5058V41.4994H55.3433V44.4205H57.7841V46.6114H55.3433V51.5255C55.3433 52.8084 56.2651 53.8742 57.3918 53.8742ZM80.4712 53.5783C78.7299 53.5783 77.3134 51.9397 77.3134 49.9271C77.3134 47.914 78.7299 46.2758 80.4712 46.2758C82.2124 46.2758 83.6293 47.914 83.6293 49.9271C83.6123 51.9598 82.1954 53.5779 80.4712 53.5779V53.5783ZM80.4712 44.1046C77.6887 44.1046 75.4353 46.7102 75.4353 49.9271C75.4353 53.144 77.6887 55.7492 80.4712 55.7492C83.2536 55.7492 85.507 53.144 85.507 49.9271C85.507 46.7298 83.2536 44.105 80.4712 44.105V44.1046ZM94.9645 53.5783C93.2229 53.5783 91.8064 51.9397 91.8064 49.9271C91.8064 47.914 93.2229 46.2758 94.9642 46.2758C96.7054 46.2758 98.1223 47.914 98.1223 49.9271C98.1223 51.9598 96.6884 53.5779 94.9642 53.5779L94.9645 53.5783ZM94.9642 44.1046C92.1817 44.1046 89.9283 46.7102 89.9283 49.9271C89.9283 53.144 92.1817 55.7492 94.9642 55.7492C96.1933 55.7492 97.3199 55.2357 98.1907 54.3872V55.532H100V50.1045V49.9267C100 46.7294 97.7466 44.1046 94.9642 44.1046V44.1046ZM73.7965 44.105H74.7013V46.2955H73.7965C72.6702 46.2955 71.748 47.3617 71.748 48.6638V55.6111H69.8533V48.6638C69.8533 46.1574 71.6286 44.105 73.7965 44.105V44.105ZM86.7705 41.2036H88.6652V55.5713H86.7705V41.2036ZM40.8503 48.9597V55.8873H38.9553V48.9597C38.9553 47.6571 38.0334 46.5913 36.9068 46.5913C35.7805 46.5913 34.8582 47.6571 34.8582 48.9597V55.8868H32.9636V48.9597C32.9636 47.6571 32.0414 46.5913 30.9151 46.5913C29.7888 46.5913 28.8666 47.6571 28.8666 48.9597V55.8868H26.9719V48.9597C26.9719 46.4528 28.7471 44.4004 30.8981 44.4004C32.1102 44.4004 33.1684 45.0121 33.9024 45.9992C34.6364 45.0121 35.6947 44.4004 36.9071 44.4004C39.0747 44.4004 40.8503 46.4528 40.8503 48.9597V48.9597ZM47.1663 53.8742C45.4251 53.8742 44.0081 52.236 44.0081 50.2229C44.0081 48.2098 45.4254 46.5717 47.1663 46.5717C48.9075 46.5717 50.3245 48.2103 50.3245 50.2229C50.3245 52.236 48.8905 53.8742 47.1663 53.8742V53.8742ZM47.1663 44.4008C44.3668 44.4008 42.1131 47.006 42.1131 50.2229C42.1131 53.4398 44.3668 56.045 47.1493 56.045C49.9318 56.045 52.1851 53.4398 52.1851 50.2229C52.2021 47.0257 49.9488 44.4008 47.1663 44.4008ZM11.4543 37C5.12127 37 0 42.9208 0 50.2426C0 57.5643 5.12127 63.4856 11.4543 63.4856C17.7876 63.4856 22.9089 57.5648 22.9089 50.2426C22.9089 42.9602 17.8556 37 11.4543 37" fill="black"/>
<path d="M14.8685 40.2562L11.4715 53.2821L11.4541 53.3017L11.4201 53.2821L8.02302 40.2562L3.63574 56.9333H4.45514C4.45514 56.9333 5.00166 54.0319 5.90648 52.2954C6.4016 51.3481 7.15259 50.5781 8.15946 50.5978C8.87644 50.6179 9.49099 51.0715 10.2594 52.3151C10.4298 52.5912 10.6347 53.0452 10.8395 53.4796C11.1642 54.2093 11.4371 54.9596 11.4371 54.9596C11.4371 54.9596 12.154 53.0649 12.6151 52.3151C13.3831 51.0715 13.9977 50.6179 14.7147 50.5978C15.7219 50.5781 16.4899 51.3481 16.968 52.2954C17.8729 54.0319 18.4194 56.9333 18.4194 56.9333H19.2384L14.8685 40.2562Z" fill="white"/>
</svg>
