<svg width="30" height="30" viewBox="0 0 30 30" fill="none" xmlns="http://www.w3.org/2000/svg">
<path d="M23.3048 12.9584C22.8729 12.68 22.724 12.1255 22.9593 11.6696C23.2641 11.0768 23.2472 10.3784 22.9137 9.8C22.5801 9.2216 21.9826 8.85916 21.3178 8.82569C20.8042 8.80175 20.3986 8.39613 20.3746 7.88249C20.3435 7.21537 19.9787 6.62004 19.4003 6.28657C18.8219 5.95292 18.1235 5.93618 17.5307 6.24104C17.0746 6.47625 16.5203 6.32742 16.2419 5.8955C15.8815 5.336 15.2671 5 14.6 5C13.9329 5 13.3185 5.33599 12.9584 5.89516C12.68 6.32707 12.1255 6.47591 11.6696 6.24069C11.0768 5.93584 10.3784 5.95274 9.8 6.28623C9.2216 6.61988 8.85916 7.21739 8.82569 7.88214C8.80175 8.39574 8.39613 8.80139 7.88249 8.82534C7.21537 8.85648 6.62004 9.22127 6.28657 9.79966C5.95292 10.3781 5.93618 11.0765 6.24104 11.6693C6.47625 12.1253 6.32742 12.6796 5.8955 12.958C5.336 13.3185 5 13.9328 5 14.6C5 15.2671 5.33599 15.8815 5.89516 16.2416C6.32707 16.52 6.47591 17.0745 6.24069 17.5303C5.93584 18.1231 5.95274 18.8216 6.28623 19.4C6.61988 19.9784 7.21739 20.3408 7.88214 20.3743C8.39574 20.3982 8.80139 20.8038 8.82534 21.3175C8.85648 21.9846 9.22127 22.5799 9.79966 22.9134C10.3781 23.247 11.0765 23.2638 11.6693 22.9589C12.1253 22.7237 12.6796 22.8725 12.958 23.3045C13.3185 23.864 13.9328 24.2 14.6 24.2C15.2671 24.2 15.8815 23.864 16.2416 23.3048C16.52 22.8729 17.0745 22.724 17.5303 22.9593C18.1231 23.2641 18.8216 23.2472 19.4 22.9137C19.9784 22.5801 20.3408 21.9826 20.3743 21.3178C20.3982 20.8042 20.8038 20.3986 21.3175 20.3746C21.9846 20.3435 22.5799 19.9787 22.9134 19.4003C23.247 18.8219 23.2638 18.1235 22.9589 17.5307C22.7237 17.0746 22.8725 16.5203 23.3045 16.2419C23.864 15.8815 24.2 15.2671 24.2 14.6C24.2 13.9329 23.864 13.3185 23.3048 12.9584V12.9584ZM22.784 15.4352C21.9344 15.9825 21.6416 17.072 22.1048 17.972C22.2632 18.2768 22.2536 18.6247 22.0832 18.9224C21.9128 19.22 21.6151 19.4 21.2719 19.4167C20.2616 19.4648 19.4647 20.264 19.4167 21.272C19.3999 21.6151 19.2198 21.9103 18.9223 22.0832C18.6247 22.256 18.2768 22.2632 17.9719 22.1048C17.0719 21.6416 15.9822 21.9344 15.4352 22.784C15.248 23.0743 14.9432 23.2401 14.6 23.2401C14.2568 23.2401 13.9519 23.0745 13.7648 22.784C13.3928 22.2056 12.7688 21.8864 12.1256 21.8864C11.8233 21.8864 11.5161 21.956 11.228 22.1049C10.9232 22.2632 10.5776 22.2537 10.2776 22.0833C9.97995 21.9105 9.79996 21.6152 9.78325 21.272C9.7352 20.2617 8.93596 19.4648 7.928 19.4167C7.58481 19.4 7.28965 19.2199 7.11672 18.9224C6.94395 18.6247 6.93675 18.2792 7.09512 17.972C7.55837 17.072 7.26555 15.9823 6.41592 15.4352C6.12563 15.2481 5.95988 14.9432 5.95988 14.6C5.95988 14.2568 6.12545 13.952 6.41592 13.7648C7.26552 13.2175 7.55832 12.1281 7.09512 11.2281C6.93675 10.9232 6.94629 10.5754 7.11672 10.2777C7.28714 9.98002 7.5848 9.80003 7.928 9.78332C8.93832 9.73527 9.73521 8.93603 9.78325 7.92807C9.79999 7.58488 9.98013 7.28972 10.2776 7.11679C10.5753 6.94402 10.9231 6.93682 11.228 7.09519C12.128 7.55843 13.2177 7.26562 13.7648 6.41599C13.9519 6.1257 14.2568 5.95995 14.6 5.95995C14.9432 5.95995 15.248 6.12552 15.4352 6.41599C15.9825 7.26559 17.0719 7.55839 17.9719 7.09519C18.2768 6.93682 18.6246 6.94636 18.9223 7.11679C19.22 7.28955 19.4 7.58487 19.4167 7.92807C19.4647 8.93839 20.264 9.73527 21.2719 9.78332C21.6151 9.80006 21.9103 9.98019 22.0832 10.2777C22.256 10.5753 22.2632 10.9209 22.1048 11.2281C21.6416 12.1281 21.9344 13.2178 22.784 13.7648C23.0743 13.952 23.2401 14.2568 23.2401 14.6C23.2401 14.9432 23.0743 15.2481 22.784 15.4352V15.4352ZM18.92 12.0008L18.1591 11.24C17.7848 10.8657 17.1751 10.8657 16.8008 11.24L13.64 14.4008L12.3992 13.1599C12.0249 12.7856 11.4152 12.7856 11.0408 13.1599L10.28 13.9208C9.90563 14.2951 9.90563 14.9048 10.28 15.2792L12.6224 17.6216C12.9031 17.9023 13.2728 18.0416 13.6399 18.0416C14.007 18.0416 14.3766 17.9025 14.6574 17.6216L18.92 13.3591C19.2943 12.9848 19.2943 12.3752 18.92 12.0008V12.0008ZM13.9786 16.9422C13.7914 17.1294 13.4866 17.1294 13.2994 16.9422L10.9593 14.5998L11.7202 13.8389L13.3017 15.4204C13.4889 15.6076 13.7937 15.6076 13.9809 15.4204L17.4801 11.919L18.241 12.6797L13.9786 16.9422ZM13.0305 20.6597C12.9634 20.8589 12.7761 20.9836 12.5768 20.9836C12.5265 20.9836 12.4737 20.9741 12.4208 20.9572C9.70423 20.0286 7.8801 17.4725 7.8801 14.5998C7.8801 11.2902 10.2489 8.49905 13.5107 7.96847C13.7747 7.92763 14.0194 8.1029 14.0626 8.3644C14.1058 8.62607 13.9282 8.87316 13.6667 8.91636C10.8708 9.37004 8.84056 11.7628 8.84056 14.5996C8.84056 17.0621 10.4054 19.2535 12.7334 20.0502C12.983 20.1366 13.1172 20.4101 13.0309 20.6598L13.0305 20.6597ZM14.6002 20.8398C14.6002 21.1038 14.3842 21.3198 14.1202 21.3198C13.8562 21.3198 13.6403 21.1038 13.6403 20.8398C13.6403 20.5758 13.8562 20.3599 14.1202 20.3599C14.3842 20.3597 14.6002 20.5758 14.6002 20.8398ZM21.3202 14.5998C21.3202 17.9094 18.9513 20.7005 15.6896 21.2311C15.6632 21.236 15.6369 21.2383 15.6128 21.2383C15.3824 21.2383 15.1783 21.0702 15.14 20.8352C15.0968 20.5735 15.2744 20.3264 15.5359 20.2832C18.3295 19.8296 20.3599 17.4368 20.3599 14.6C20.3599 12.1375 18.7951 9.94609 16.4671 9.14938C16.2175 9.063 16.0831 8.78945 16.1695 8.53982C16.2559 8.29021 16.5271 8.15344 16.779 8.24217C19.496 9.17097 21.3202 11.727 21.3202 14.5996V14.5998ZM14.6002 8.35983C14.6002 8.09582 14.8161 7.87988 15.0801 7.87988C15.3441 7.87988 15.5601 8.09584 15.5601 8.35983C15.5601 8.62384 15.3441 8.83979 15.0801 8.83979C14.8161 8.83996 14.6002 8.62383 14.6002 8.35983Z" fill="#33AFB4"/>
</svg>
