<svg width="100" height="100" viewBox="0 0 100 100" fill="none" xmlns="http://www.w3.org/2000/svg">
<path fill-rule="evenodd" clip-rule="evenodd" d="M54.8353 49.2875C54.8353 49.2875 53.863 48.4654 53.2604 48.1473C53.2604 48.1473 51.3991 46.9684 51.0286 46.4075C51.0286 46.4075 50.3041 45.4725 50.7281 44.3882C50.7281 44.3882 50.9059 43.6779 51.6729 43.6779C51.6729 43.6779 52.6712 43.7531 52.6712 44.8739V46.4558H56.2498L56.2435 44.126C56.2435 44.126 56.5188 40.312 52.0285 40.1444C52.0285 40.1444 48.4971 39.8274 47.4846 42.4259C47.4846 42.4259 47.0873 43.0051 47.0873 45.0233V46.4827C47.0873 46.4827 47.0464 48.1656 47.6758 49.2488C47.6758 49.2488 48.0314 49.9603 48.9077 50.7448C48.9077 50.7448 50.6872 52.0537 51.7547 52.8027C51.7547 52.8027 52.8325 53.6431 52.6901 54.98C52.6901 54.98 52.6035 56.3534 51.562 56.2975C51.562 56.2975 50.6101 56.2384 50.6101 54.8918V53.311H46.7971V55.6076C46.7971 55.6076 46.6901 59.9997 51.5903 59.9997C51.5903 59.9997 56.2718 60.1297 56.4905 55.4926V53.6238C56.4905 53.6238 56.6549 50.7824 54.8353 49.2875Z" fill="#231F20"/>
<path fill-rule="evenodd" clip-rule="evenodd" d="M36.5159 40.6903L35.3178 50.9479H35.0369L33.8931 40.7827H27.9151L27.6162 59.357H31.1547L31.1972 45.3618H31.4756L33.3519 59.3538H37.0752L38.9278 45.3672H39.1741L39.2598 59.357H42.8172L42.4349 40.6903" fill="#231F20"/>
<path fill-rule="evenodd" clip-rule="evenodd" d="M15.4483 40.7677L13.0938 59.3355H16.9036L18.2984 44.9384H18.6115L20.0055 59.3355H23.8154L21.4608 40.7677" fill="#231F20"/>
<path fill-rule="evenodd" clip-rule="evenodd" d="M95.3919 49.0307V51.771H96.369V54.7113C96.369 56.1481 95.4698 56.1739 95.4698 56.1739C94.3763 56.1739 94.4172 54.8091 94.4172 54.8091V44.6375C94.4172 43.5908 95.3872 43.5349 95.3872 43.5349C96.3194 43.5349 96.3257 44.7837 96.3257 44.7837V46.3311H99.9129C100.029 43.3125 99.5896 42.5817 99.5896 42.5817C98.6999 39.8521 95.3337 40.0015 95.3337 40.0015C90.1605 40.0015 90.7348 45.4231 90.7348 45.4231V55.2572C90.8457 60.3414 95.9418 59.8255 96.0291 59.8202C98.2963 59.4763 98.9807 58.493 98.9807 58.493C99.6116 57.8536 99.7745 56.9691 99.7745 56.9691C99.9538 56.4533 99.9995 54.8091 99.9995 54.8091V49.0307" fill="#231F20"/>
<path fill-rule="evenodd" clip-rule="evenodd" d="M83.5021 52.0536H83.3456L79.7048 40.6946H75.3506V59.3602H78.8946L78.6822 48.0033H78.8403L82.6116 59.3602H86.8353V40.6935H83.2465" fill="#231F20"/>
<path fill-rule="evenodd" clip-rule="evenodd" d="M66.6981 54.7091C66.6981 54.7091 66.7492 56.2405 65.71 56.2405C65.71 56.2405 64.6157 56.3211 64.6157 54.7467L64.6047 40.7064H60.717V54.635C60.717 54.635 60.3181 59.9072 65.7643 59.9072C65.7643 59.9072 70.4969 59.9846 70.4969 54.8768V40.7064H66.6981" fill="#231F20"/>
<path fill-rule="evenodd" clip-rule="evenodd" d="M8.03688 49.2864C8.03688 49.2864 7.06533 48.4654 6.46274 48.1473C6.46274 48.1473 4.60146 46.9695 4.23251 46.4075C4.23251 46.4075 3.50719 45.4714 3.932 44.3893C3.932 44.3893 4.109 43.6789 4.87522 43.6789C4.87522 43.6789 5.8743 43.7531 5.8743 44.8739V46.4558H9.45447L9.4466 44.126C9.4466 44.126 9.72037 40.311 5.23159 40.1444C5.23159 40.1444 4.8941 40.1143 4.39771 40.1487C4.39771 40.1487 1.67895 40.3475 0.70662 42.3861C0.701113 42.4001 0.693246 42.4119 0.687739 42.4259C0.687739 42.4259 0.290467 43.004 0.290467 45.0233V46.4827C0.290467 46.4827 0.24956 48.1645 0.879689 49.2488C0.879689 49.2488 1.23527 49.9603 2.11163 50.7447C2.11163 50.7447 3.88952 52.0537 4.95704 52.8016C4.95704 52.8016 6.03636 53.642 5.89397 54.9799C5.89397 54.9799 5.80665 56.3534 4.76587 56.2975C4.76587 56.2975 3.81399 56.2384 3.81399 54.8918V53.311H0.000183357V55.6075C0.000183357 55.6075 -0.106018 59.9996 4.79341 59.9996C4.79341 59.9996 9.47335 60.1297 9.69362 55.4926V53.6237C9.69362 53.6237 9.85804 50.7824 8.03688 49.2864Z" fill="#231F20"/>
</svg>
