<svg width="90" height="64" viewBox="0 0 90 64" fill="none" xmlns="http://www.w3.org/2000/svg">
<path d="M4.85999 34.6643H59.282C60.3797 34.6643 61.2758 34.008 61.2758 33.2246C61.2758 32.4405 60.3797 31.7848 59.282 31.7848L4.85999 31.7843C4.77015 31.7843 4.68109 31.7285 4.68109 31.6565L4.68031 4.38365C4.68031 4.31947 4.75843 4.26367 4.85921 4.26367H59.2812C60.3789 4.26367 61.275 3.60741 61.275 2.82396C61.275 2.03991 60.3789 1.38424 59.2812 1.38424L40.0398 1.38368C40.0398 0.639827 39.1437 -0.000244141 38.0461 -0.000244141H28.7501C27.6524 -0.000244141 26.7563 0.639827 26.7563 1.38368H4.86029C2.56429 1.38368 0.649292 2.74361 0.649292 4.38368V31.6551C0.648511 33.3035 2.56413 34.6635 4.86029 34.6635L4.85999 34.6643Z" fill="#003462"/>
<path d="M75.93 0.0753362C79.0644 0.506136 81.116 2.67076 80.512 4.90962C79.9081 7.14848 76.8784 8.61391 73.744 8.18248C70.6096 7.75168 68.558 5.58705 69.162 3.34819C69.7651 1.10934 72.7956 -0.356092 75.93 0.0753362" fill="#003462"/>
<path d="M70.592 41.1913C72.2717 41.1913 73.6716 40.2075 73.6716 39.0072V26.7355C73.6716 26.4793 73.963 26.2795 74.3325 26.3035C74.6458 26.3275 74.87 26.5273 74.87 26.7516V38.9994C74.87 40.1991 76.2474 41.1835 77.9278 41.1835C79.6075 41.1835 80.9856 40.1997 80.9856 38.9994V21.5508L82.5536 24.6546C83.1247 25.7824 84.8388 26.3426 86.4176 25.9186C87.9965 25.5988 88.8144 24.3026 88.2434 23.1747L81.7028 10.4147C81.2324 9.50292 80.0231 8.91089 78.6676 8.91089L77.2676 8.9187L74.848 10.6547L72.4176 8.9187H69.2708C68.1169 8.9187 66.9748 8.99069 65.8434 9.13466L51.384 10.9349C49.7261 11.1431 48.6286 12.3747 48.92 13.4388C49.2114 14.8227 50.7903 15.4227 52.4482 15.2151L67.5568 13.3272V38.9987C67.545 40.2068 68.9114 41.1828 70.592 41.1907L70.592 41.1913Z" fill="#003462"/>
<path d="M40.364 28.9043C40.521 28.9204 40.6773 28.9361 40.8343 28.9361C42.1445 28.9361 43.2539 28.272 43.4773 27.3518C43.5109 27.2156 43.5218 27.0717 43.5109 26.9277L47.8563 24.7519C48.0352 24.8078 48.2259 24.8479 48.4165 24.8719C48.5735 24.8881 48.7297 24.9037 48.8868 24.9037C50.1969 24.9037 51.3064 24.2397 51.5298 23.3195C51.7876 22.2793 50.8126 21.2793 49.3454 21.0957C49.1884 21.0796 49.0321 21.0639 48.8751 21.0639C47.5649 21.0639 46.4555 21.728 46.2321 22.6482C46.1758 22.8564 46.1758 23.064 46.2211 23.2721L42.1109 25.328C41.8531 25.2242 41.5734 25.16 41.282 25.1198C40.9461 25.0796 40.5875 25.0796 40.2625 25.1276L33.5757 18.3033C33.6202 18.2074 33.6655 18.1036 33.6874 18.0076C33.9452 16.9674 32.9702 15.9674 31.503 15.7839C31.346 15.7677 31.1897 15.7521 31.0327 15.7521C29.7225 15.7521 28.6131 16.4161 28.3897 17.3363C28.3452 17.4965 28.3452 17.6645 28.3561 17.8241L23.5741 20.2158C23.2944 20.0958 22.9803 20.016 22.6553 19.968C22.3757 19.9362 22.0842 19.9278 21.7928 19.9602L12.5764 10.5606C12.6772 10.4088 12.7553 10.2409 12.7889 10.0729C13.0468 9.03273 12.0718 8.03276 10.6045 7.84919C10.4475 7.83301 10.2913 7.81738 10.1342 7.81738C8.82406 7.81738 7.71462 8.48144 7.49122 9.40167C7.2334 10.4418 8.2084 11.4418 9.67562 11.6254C9.92172 11.6572 10.1795 11.6656 10.4264 11.6416L19.7334 21.1293C19.6553 21.2654 19.599 21.401 19.5654 21.545C19.3076 22.5852 20.2826 23.5852 21.7498 23.7687C21.9069 23.7849 22.0631 23.8005 22.2202 23.8005C23.5303 23.8005 24.6398 23.1365 24.8632 22.2163C24.8858 22.1041 24.9077 21.9925 24.8967 21.8803L29.8475 19.4005C30.0827 19.4803 30.3288 19.5444 30.5866 19.5762C30.9225 19.6164 31.2694 19.6164 31.6061 19.5684L38.3037 26.3927C38.2592 26.4887 38.2256 26.5847 38.192 26.6885C37.9334 27.7286 38.9076 28.7203 40.3638 28.9045L40.364 28.9043Z" fill="#003462"/>
<path d="M60.96 51.7356H51.574C48.3264 51.7356 45.7388 53.6077 45.7388 55.9276V60.1753C45.7388 61.1513 46.713 61.9996 48.0794 62.0955C48.6614 62.1356 49.1771 62.0397 49.6247 61.8477L49.6255 63.9994H62.9201V61.8554C63.3678 62.0474 63.8834 62.1433 64.4654 62.1032C65.8318 62.0072 66.806 61.159 66.806 60.183V55.9353C66.806 53.6077 64.2076 51.7356 60.96 51.7356H60.96Z" fill="#003462"/>
<path d="M61.716 45.6914C62.4676 47.8387 60.6394 50.0146 57.6332 50.5514C54.627 51.0882 51.5808 49.7825 50.8292 47.6351C50.0776 45.4879 51.9058 43.312 54.912 42.7751C57.9182 42.2383 60.9644 43.5441 61.716 45.6914Z" fill="#003462"/>
<path d="M83.518 51.7356H74.132C70.8844 51.7356 68.2968 53.6077 68.2968 55.9276V60.1753C68.2968 61.1513 69.271 61.9996 70.6374 62.0955C71.2195 62.1356 71.7351 62.0397 72.1827 61.8477V63.9994H85.4773V61.8554C85.925 62.0474 86.4406 62.1433 87.0226 62.1032C88.389 62.0072 89.3632 61.159 89.3632 60.183V55.9353C89.3531 53.6077 86.7656 51.7356 83.5178 51.7356H83.518Z" fill="#003462"/>
<path d="M79.046 42.6571C82.1428 42.7419 84.557 44.604 84.4374 46.816C84.3186 49.028 81.7116 50.7524 78.6148 50.667C75.518 50.5822 73.1038 48.72 73.2234 46.508C73.3422 44.296 75.9492 42.5722 79.046 42.6571Z" fill="#003462"/>
<path d="M38.414 51.7356H29.028C25.7804 51.7356 23.1928 53.6077 23.1928 55.9276V60.1753C23.1928 61.1513 24.167 61.9996 25.5334 62.0955C26.1154 62.1356 26.631 62.0397 27.0787 61.8477L27.0795 63.9994H40.3741V61.8554C40.8217 62.0474 41.3374 62.1433 41.9194 62.1032C43.2858 62.0072 44.26 61.159 44.26 60.183V55.9353C44.2491 53.6077 41.6624 51.7356 38.414 51.7356H38.414Z" fill="#003462"/>
<path d="M39.332 46.6643C39.332 48.878 36.8196 50.6722 33.721 50.6722C30.6218 50.6722 28.1092 48.878 28.1092 46.6643C28.1092 44.4506 30.6216 42.6565 33.721 42.6565C36.8194 42.6565 39.332 44.4506 39.332 46.6643Z" fill="#003462"/>
<path d="M15.868 51.7356H6.48199C3.23439 51.7356 0.64679 53.6077 0.64679 55.9276V60.1753C0.64679 61.1513 1.62101 61.9996 2.98739 62.0955C3.56943 62.1356 4.08505 62.0397 4.53271 61.8477L4.53349 63.9994H17.8281V61.8554C18.2758 62.0474 18.7914 62.1433 19.3734 62.1032C20.7398 62.0072 21.714 61.159 21.714 60.183V55.9353C21.7031 53.6077 19.1164 51.7356 15.868 51.7356H15.868Z" fill="#003462"/>
<path d="M16.784 46.5285C16.8871 48.7405 14.4606 50.5938 11.363 50.6675C8.26619 50.7411 5.67159 49.0073 5.56839 46.7953C5.46519 44.5833 7.89259 42.73 10.9894 42.6563C14.0862 42.5826 16.6808 44.3159 16.784 46.5285" fill="#003462"/>
</svg>
