<svg width="30" height="30" viewBox="0 0 30 30" fill="none" xmlns="http://www.w3.org/2000/svg">
<path d="M15.0923 22.24C11.1706 22.24 8 19.0569 8 15.12C8 11.1831 11.1707 8 15.0923 8C16.8724 8 18.569 8.67017 19.904 9.87075C20.0708 10.0382 20.0708 10.2895 19.9317 10.4572C19.7651 10.6525 19.4868 10.6525 19.32 10.485C18.1519 9.42398 16.6499 8.83773 15.0924 8.83773C11.6435 8.83773 8.83442 11.6578 8.83442 15.1201C8.83442 18.5824 11.6435 21.4024 15.0924 21.4024C18.5413 21.4024 21.3503 18.5824 21.3503 15.1201C21.3503 14.2265 21.1555 13.361 20.7941 12.5513C20.7107 12.3279 20.7941 12.1045 21.0166 11.9929C21.2392 11.9092 21.4617 11.9929 21.5729 12.2163C21.99 13.1377 22.1847 14.1149 22.1847 15.1201C22.1847 19.057 18.9863 22.2401 15.0924 22.2401L15.0923 22.24Z" fill="black"/>
<path d="M14.1469 18.0518C14.0357 18.0518 13.9244 18.0239 13.841 17.9402L11.6159 15.7064C11.449 15.5389 11.449 15.2877 11.6159 15.12C11.7827 14.9525 12.033 14.9525 12.2 15.12L14.1192 17.0466L21.8791 9.25648C22.0459 9.08898 22.2962 9.08898 22.4632 9.25648C22.6301 9.42398 22.6301 9.67523 22.4632 9.84294L14.3974 17.9402C14.3695 18.0237 14.2581 18.0518 14.147 18.0518H14.1469Z" fill="black"/>
</svg>
